<svg width="449" height="302" viewBox="0 0 449 302" fill="none" xmlns="http://www.w3.org/2000/svg">
<g filter="url(#filter0_d_2950_728)">
<path d="M39.8395 296.032H3.46094V1.0321H39.8395V296.032Z" fill="#E0830F"/>
<path d="M436.786 116.698C436.786 125.02 435.76 132.453 433.708 138.999C431.656 145.544 428.857 151.341 425.313 156.39C421.862 161.346 417.851 165.6 413.28 169.154C408.709 172.707 403.905 175.652 398.868 177.99C393.925 180.234 388.888 181.87 383.757 182.899C378.72 183.927 373.963 184.441 369.486 184.441L445.461 250.221H389.214L313.379 184.441H287.214V147.975H369.486C374.056 147.601 378.207 146.666 381.938 145.17C385.763 143.58 389.027 141.476 391.733 138.858C394.531 136.24 396.676 133.108 398.169 129.461C399.661 125.721 400.407 121.467 400.407 116.698V93.6959C400.407 91.6388 400.128 90.096 399.568 89.0674C399.102 87.9454 398.449 87.1506 397.609 86.6831C396.863 86.1221 396.023 85.7948 395.091 85.7013C394.251 85.6078 393.458 85.5611 392.712 85.5611H272.663V250.221H236.284V67.468C236.284 64.9434 236.75 62.5591 237.683 60.315C238.616 58.0709 239.875 56.1073 241.461 54.4242C243.14 52.7412 245.099 51.4321 247.337 50.4971C249.576 49.562 252.001 49.0945 254.613 49.0945H392.712C400.827 49.0945 407.683 50.5906 413.28 53.5827C418.877 56.4813 423.401 60.1747 426.852 64.6629C430.396 69.0576 432.915 73.8263 434.407 78.969C435.993 84.1117 436.786 88.9272 436.786 93.4154V116.698Z" fill="#E0830F"/>
<path d="M177.586 265.998L79.9959 168.032H54.391V131.284H79.9959L177.986 32.9201L209.797 1.0321H272.663L271.966 32.9201H229.616L110.358 149.658L229.216 265.998L272.663 266.897V296.032H207.548L177.586 265.998Z" fill="#E0830F"/>
</g>
<defs>
<filter id="filter0_d_2950_728" x="0.000268459" y="-2.43187e-05" width="448.921" height="301.921" filterUnits="userSpaceOnUse" color-interpolation-filters="sRGB">
<feFlood flood-opacity="0" result="BackgroundImageFix"/>
<feColorMatrix in="SourceAlpha" type="matrix" values="0 0 0 0 0 0 0 0 0 0 0 0 0 0 0 0 0 0 127 0" result="hardAlpha"/>
<feOffset dy="2.42854"/>
<feGaussianBlur stdDeviation="1.73033"/>
<feComposite in2="hardAlpha" operator="out"/>
<feColorMatrix type="matrix" values="0 0 0 0 0 0 0 0 0 0 0 0 0 0 0 0 0 0 0.4 0"/>
<feBlend mode="normal" in2="BackgroundImageFix" result="effect1_dropShadow_2950_728"/>
<feBlend mode="normal" in="SourceGraphic" in2="effect1_dropShadow_2950_728" result="shape"/>
</filter>
</defs>
</svg>
