<svg width="169" height="44" viewBox="0 0 169 44" fill="none" xmlns="http://www.w3.org/2000/svg">
<g filter="url(#filter0_d_2950_794)">
<path d="M2.67868 29.4898V4.97114C2.70677 2.05024 4.05487 0.393192 6.723 -5.44206e-06H12.4946C13.9269 -5.44206e-06 15.2048 0.280851 16.3283 0.842563C17.4798 1.40427 18.4487 2.17663 19.2351 3.15962C19.853 3.91793 20.2883 4.77454 20.5411 5.72945C20.8219 6.65627 20.9062 7.58309 20.7939 8.50992C20.6815 9.43674 20.3726 10.3214 19.867 11.164C19.3896 12.0066 18.7015 12.7227 17.8027 13.3125C18.9543 13.7619 19.9092 14.3798 20.6675 15.1662C21.4539 15.9526 22.0437 16.8232 22.4369 17.7781C22.8301 18.7331 23.0267 19.7301 23.0267 20.7693C23.0547 21.8084 22.8862 22.8195 22.5211 23.8025C22.1841 24.7574 21.6645 25.6561 20.9624 26.4987C20.2602 27.3132 19.3896 27.9732 18.3504 28.4787C17.0023 29.1528 15.1346 29.4898 12.7474 29.4898H2.67868ZM8.23962 5.39242V24.1817C8.68899 24.1817 9.19453 24.1957 9.75624 24.2238C10.318 24.2238 10.8937 24.2238 11.4835 24.2238C12.0733 24.2238 12.6491 24.2097 13.2108 24.1817C13.7725 24.1255 14.264 24.0272 14.6853 23.8868C15.7525 23.6059 16.5108 23.1284 16.9602 22.4544C17.4096 21.7523 17.5781 21.022 17.4657 20.2637C17.3815 19.5054 17.0444 18.7892 16.4546 18.1152C15.8648 17.4411 15.0644 16.9918 14.0533 16.7671C13.7444 16.7109 13.3652 16.6688 12.9159 16.6407C12.4665 16.5845 11.989 16.5845 11.4835 16.6407C11.006 16.6688 10.5567 16.753 10.1354 16.8935C9.71411 17.0339 9.40517 17.2726 9.20857 17.6096C8.87155 16.8232 8.6609 16.1071 8.57665 15.4611C8.52048 14.787 8.61878 14.1832 8.87155 13.6496C9.1524 13.1159 9.61581 12.6666 10.2618 12.3015C10.9358 11.9364 11.8346 11.6415 12.958 11.4168C13.6601 11.2763 14.2359 10.9253 14.6853 10.3636C15.1627 9.80185 15.4014 9.14184 15.4014 8.38353C15.4014 7.56905 15.1206 6.92308 14.5589 6.44563C14.0252 5.96817 13.4074 5.65923 12.7052 5.51881C12.3963 5.46263 12.0312 5.42051 11.6099 5.39242C11.2167 5.36434 10.8094 5.35029 10.3882 5.35029C9.99497 5.35029 9.60177 5.36434 9.20857 5.39242C8.81537 5.39242 8.49239 5.39242 8.23962 5.39242ZM32.7998 7.70948V18.1573C32.7998 18.6628 32.7998 19.2105 32.7998 19.8003C32.8279 20.362 32.884 20.9237 32.9683 21.4854C33.0806 22.0191 33.2491 22.5246 33.4738 23.0021C33.7266 23.4795 34.0917 23.8868 34.5692 24.2238C34.8781 24.4485 35.2292 24.617 35.6224 24.7293C36.0437 24.8417 36.4649 24.8978 36.8862 24.8978C37.3075 24.8978 37.7147 24.8417 38.1079 24.7293C38.5011 24.617 38.8663 24.4485 39.2033 24.2238C39.6807 23.9148 40.0318 23.5357 40.2565 23.0863C40.5093 22.6089 40.6778 22.1033 40.762 21.5697C40.8744 21.0361 40.9305 20.4884 40.9305 19.9267C40.9305 19.365 40.9305 18.8314 40.9305 18.3258V12.0487C40.9025 10.5321 41.394 9.40865 42.405 8.67843C43.4161 7.92012 44.7361 7.56905 46.3651 7.62522V16.8935C46.3932 18.8033 46.323 20.4041 46.1545 21.6961C46.014 22.9599 45.7893 23.957 45.4804 24.6872C44.6659 26.5689 43.5144 27.917 42.0259 28.7315C40.5373 29.546 38.796 29.9532 36.802 29.9532C34.6394 29.9532 32.7857 29.4758 31.241 28.5209C29.6963 27.566 28.5869 26.0353 27.9129 23.9289C27.7163 23.2829 27.5618 22.4123 27.4495 21.3169C27.3371 20.1935 27.281 18.9718 27.281 17.6518V7.70948H32.7998ZM55.916 29.4898H50.6079V4.33921C50.6079 3.18771 51.0713 2.19067 51.9981 1.3481C52.953 0.505535 54.259 0.0561666 55.916 -5.44206e-06V16.9777C55.916 17.9326 56.0003 18.9016 56.1688 19.8846C56.3654 20.8395 56.6744 21.7101 57.0956 22.4965C57.5169 23.2829 58.0927 23.9289 58.8229 24.4344C59.5531 24.9119 60.4659 25.1506 61.5612 25.1506C62.8532 25.1506 63.9204 24.8417 64.763 24.2238C65.6336 23.6059 66.2796 22.8335 66.7009 21.9067C67.1222 20.9799 67.3188 19.9688 67.2907 18.8735C67.2907 17.7781 67.066 16.7671 66.6166 15.8402C66.1954 14.9134 65.5494 14.1411 64.6787 13.5232C63.8362 12.9053 62.783 12.5964 61.5191 12.5964C60.7608 12.5964 59.9463 12.7227 59.0757 12.9755C58.2331 13.2002 57.5731 13.6496 57.0956 14.3236C56.8429 13.8743 56.7024 13.2845 56.6744 12.5542C56.6744 11.824 56.8569 11.1078 57.222 10.4057C57.5871 9.70355 58.1629 9.08567 58.9493 8.55205C59.7357 8.01842 60.831 7.72352 62.2353 7.66735C63.5834 7.63926 64.8753 7.89203 66.1111 8.42566C67.375 8.95929 68.4843 9.7176 69.4392 10.7006C70.4222 11.6836 71.1946 12.8772 71.7563 14.2815C72.3461 15.6577 72.641 17.1743 72.641 18.8314C72.641 20.5446 72.3742 22.0893 71.8406 23.4655C71.3069 24.8136 70.5907 25.9651 69.692 26.92C68.7933 27.8749 67.7681 28.6192 66.6166 29.1528C65.4651 29.6864 64.2715 29.9673 63.0357 29.9954C61.8 30.0515 60.5642 29.8549 59.3284 29.4056C58.0927 28.9562 56.9552 28.2119 55.916 27.1728V29.4898ZM92.7059 27.0885C91.6387 28.1277 90.4731 28.886 89.2093 29.3634C87.9735 29.8409 86.7237 30.0515 85.4598 29.9954C84.196 29.9673 82.9602 29.6864 81.7526 29.1528C80.573 28.6192 79.5198 27.8609 78.5929 26.8779C77.6942 25.8668 76.964 24.6732 76.4023 23.297C75.8686 21.8927 75.6018 20.3058 75.6018 18.5365C75.6018 16.8513 75.8967 15.2926 76.4865 13.8602C77.0763 12.4279 77.8627 11.2061 78.8457 10.195C79.8568 9.18397 80.9942 8.41162 82.2581 7.87799C83.55 7.31628 84.8841 7.06351 86.2603 7.11968C87.6084 7.17585 88.6897 7.48479 89.5042 8.04651C90.3186 8.58013 90.9084 9.21206 91.2736 9.94228C91.6668 10.6725 91.8633 11.4168 91.8633 12.1751C91.8914 12.9053 91.7791 13.4951 91.5263 13.9445C91.0489 13.2423 90.3748 12.7789 89.5042 12.5542C88.6335 12.3015 87.7909 12.1751 86.9765 12.1751C85.6845 12.1751 84.6032 12.4981 83.7326 13.144C82.8619 13.7619 82.2019 14.5483 81.7526 15.5032C81.3032 16.4581 81.0645 17.4973 81.0364 18.6207C81.0364 19.7161 81.247 20.7412 81.6683 21.6961C82.1177 22.651 82.7777 23.4514 83.6483 24.0974C84.5471 24.7153 85.6564 25.0242 86.9765 25.0242C88.0999 25.0242 89.0267 24.7715 89.7569 24.2659C90.4872 23.7604 91.0629 23.1144 91.4842 22.328C91.9336 21.5135 92.2425 20.6148 92.411 19.6318C92.6076 18.6207 92.7059 17.6237 92.7059 16.6407V9.98441V7.66735H98.1826V29.4898H92.7059V27.0885ZM104.679 4.29708C104.679 3.51069 104.82 2.85068 105.101 2.31705C105.409 1.75534 105.803 1.30597 106.28 0.968946C106.786 0.63192 107.361 0.393194 108.007 0.252766C108.653 0.0842518 109.313 -5.44206e-06 109.987 -5.44206e-06V7.83586H114.874C114.874 8.39758 114.818 8.94524 114.706 9.47887C114.622 10.0125 114.439 10.504 114.158 10.9534C113.877 11.3746 113.498 11.7257 113.021 12.0066C112.543 12.2593 111.925 12.3857 111.167 12.3857H109.987V24.308C109.987 24.7574 110.156 25.0804 110.493 25.277C110.83 25.4455 111.223 25.5298 111.673 25.5298C112.122 25.5017 112.571 25.3893 113.021 25.1927C113.47 24.9961 113.793 24.7293 113.99 24.3923C114.355 25.3191 114.369 26.1476 114.032 26.8779C113.723 27.58 113.217 28.1558 112.515 28.6051C111.841 29.0264 111.041 29.3073 110.114 29.4477C109.215 29.56 108.358 29.4898 107.544 29.2371C106.758 28.9562 106.084 28.4787 105.522 27.8047C104.96 27.1026 104.679 26.1617 104.679 24.9821V12.3857H101.983V7.83586H104.679V4.29708ZM134.505 27.0885C133.438 28.1277 132.272 28.886 131.008 29.3634C129.773 29.8409 128.523 30.0515 127.259 29.9954C125.995 29.9673 124.759 29.6864 123.552 29.1528C122.372 28.6192 121.319 27.8609 120.392 26.8779C119.493 25.8668 118.763 24.6732 118.201 23.297C117.668 21.8927 117.401 20.3058 117.401 18.5365C117.401 16.8513 117.696 15.2926 118.286 13.8602C118.876 12.4279 119.662 11.2061 120.645 10.195C121.656 9.18397 122.793 8.41162 124.057 7.87799C125.349 7.31628 126.683 7.06351 128.059 7.11968C129.408 7.17585 130.489 7.48479 131.303 8.04651C132.118 8.58013 132.708 9.21206 133.073 9.94228C133.466 10.6725 133.663 11.4168 133.663 12.1751C133.691 12.9053 133.578 13.4951 133.326 13.9445C132.848 13.2423 132.174 12.7789 131.303 12.5542C130.433 12.3015 129.59 12.1751 128.776 12.1751C127.484 12.1751 126.402 12.4981 125.532 13.144C124.661 13.7619 124.001 14.5483 123.552 15.5032C123.102 16.4581 122.864 17.4973 122.836 18.6207C122.836 19.7161 123.046 20.7412 123.467 21.6961C123.917 22.651 124.577 23.4514 125.448 24.0974C126.346 24.7153 127.456 25.0242 128.776 25.0242C129.899 25.0242 130.826 24.7715 131.556 24.2659C132.286 23.7604 132.862 23.1144 133.283 22.328C133.733 21.5135 134.042 20.6148 134.21 19.6318C134.407 18.6207 134.505 17.6237 134.505 16.6407V9.98441V7.66735H139.982V29.4898H134.505V27.0885ZM154.778 37.9576C153.373 37.9576 152.011 37.7891 150.691 37.4521C149.399 37.115 148.29 36.5955 147.363 35.8933C146.436 35.2193 145.776 34.3486 145.383 33.2814C144.99 32.2422 145.004 30.9924 145.425 29.532C145.875 30.0375 146.45 30.5009 147.152 30.9222C147.883 31.3435 148.641 31.6945 149.427 31.9754C150.242 32.2843 151.056 32.5231 151.871 32.6916C152.713 32.8601 153.486 32.9303 154.188 32.9022C155.48 32.846 156.533 32.6354 157.348 32.2703C158.162 31.9052 158.794 31.4277 159.243 30.8379C159.721 30.2762 160.044 29.6303 160.212 28.9C160.381 28.1698 160.465 27.4115 160.465 26.6251C159.398 27.6923 158.232 28.4647 156.968 28.9422C155.733 29.3915 154.483 29.5881 153.219 29.532C151.955 29.5039 150.719 29.223 149.512 28.6894C148.332 28.1277 147.279 27.3553 146.352 26.3723C145.453 25.3893 144.723 24.1957 144.161 22.7914C143.628 21.3871 143.361 19.8144 143.361 18.073C143.361 16.3879 143.656 14.8573 144.246 13.4811C144.835 12.1049 145.622 10.9393 146.605 9.98441C147.616 9.0295 148.753 8.29928 150.017 7.79373C151.309 7.28819 152.643 7.06351 154.019 7.11968C155.368 7.17585 156.449 7.48479 157.263 8.04651C158.078 8.58013 158.668 9.21206 159.033 9.94228C159.426 10.6444 159.622 11.3746 159.622 12.133C159.651 12.8913 159.538 13.4951 159.285 13.9445C159.033 13.6074 158.724 13.3266 158.359 13.1019C158.022 12.8491 157.642 12.6525 157.221 12.5121C156.828 12.3717 156.407 12.2734 155.957 12.2172C155.536 12.161 155.129 12.133 154.736 12.133C153.444 12.133 152.362 12.4419 151.492 13.0598C150.621 13.6777 149.961 14.45 149.512 15.3768C149.062 16.2756 148.824 17.2586 148.795 18.3258C148.795 19.3931 149.006 20.3901 149.427 21.3169C149.877 22.2157 150.537 22.974 151.407 23.5919C152.306 24.2097 153.416 24.5187 154.736 24.5187C155.859 24.5187 156.786 24.294 157.516 23.8446C158.246 23.3953 158.822 22.8055 159.243 22.0752C159.693 21.3169 160.002 20.4744 160.17 19.5475C160.367 18.5926 160.465 17.6237 160.465 16.6407V9.98441V7.66735H165.942V27.0464C165.942 28.7034 165.703 30.206 165.226 31.5541C164.748 32.9022 164.032 34.0537 163.077 35.0086C162.15 35.9635 160.985 36.6938 159.58 37.1993C158.204 37.7048 156.603 37.9576 154.778 37.9576Z" fill="#06D001"/>
</g>
<defs>
<filter id="filter0_d_2950_794" x="3.14713e-05" y="0" width="168.62" height="43.315" filterUnits="userSpaceOnUse" color-interpolation-filters="sRGB">
<feFlood flood-opacity="0" result="BackgroundImageFix"/>
<feColorMatrix in="SourceAlpha" type="matrix" values="0 0 0 0 0 0 0 0 0 0 0 0 0 0 0 0 0 0 127 0" result="hardAlpha"/>
<feOffset dy="2.67868"/>
<feGaussianBlur stdDeviation="1.33934"/>
<feComposite in2="hardAlpha" operator="out"/>
<feColorMatrix type="matrix" values="0 0 0 0 0 0 0 0 0 0 0 0 0 0 0 0 0 0 0.25 0"/>
<feBlend mode="normal" in2="BackgroundImageFix" result="effect1_dropShadow_2950_794"/>
<feBlend mode="normal" in="SourceGraphic" in2="effect1_dropShadow_2950_794" result="shape"/>
</filter>
</defs>
</svg>
